# xmcd
#
# Track frame offsets: 
#        150
#        14648
#        27347
#        46284
#        60159
#        74551
#        93253
#        109982
#        124854
#        138670
#        159135
#
# Disc length: 2416 seconds
#
# Revision: 0
# Processed by: cddbd v1.5.2PL0 Copyright (c) Steve Scherf et al.
# Submitted via: ExactAudioCopy v1.3
#
DISCID=93096e0b
DTITLE=Kenny Chesney - The Big Revival
DYEAR=2014
DGENRE=Country
TTITLE0=The Big Revival
TTITLE1=Drink It Up
TTITLE2=Til It's Gone
TTITLE3=American Kids
TTITLE4=Wild Child (with Grace Potter)
TTITLE5=Beer Can Chicken
TTITLE6=Rock Bottom
TTITLE7=Don't It
TTITLE8=Save It for a Rainy Day
TTITLE9=Flora-Bama
TTITLE10=If This Bus Could Talk
EXTD=
EXTT0=
EXTT1=
EXTT2=
EXTT3=
EXTT4=
EXTT5=
EXTT6=
EXTT7=
EXTT8=
EXTT9=
EXTT10=
PLAYORDER=
